<mxfile host="app.diagrams.net" modified="2024-01-22T17:47:15.997Z" agent="Mozilla/5.0 (Windows NT 10.0; Win64; x64) AppleWebKit/537.36 (KHTML, like Gecko) Chrome/120.0.0.0 Safari/537.36" version="22.1.21" etag="VJ5w4NcVBWSGa2XqRo6b" type="github">
  <diagram name="Trang-1" id="rPjkvcykap3tR4ZvirH8">
    <mxGraphModel>
      <root>
        <mxCell id="0" />
        <mxCell id="1" parent="0" />
      </root>
    </mxGraphModel>
  </diagram>
</mxfile>
